<svg width="64" height="64" viewBox="0 0 64 64" fill="none" xmlns="http://www.w3.org/2000/svg">
<path d="M59.08 49.326L33.14 64V52.574L49.3 43.682L59.08 49.326ZM60.856 47.72V17.04L51.368 22.524V42.248L60.856 47.72ZM4.924 49.326L30.86 64V52.574L14.69 43.68L4.924 49.326ZM3.148 47.72V17.04L12.636 22.524V42.248L3.148 47.72ZM4.26 15.048L30.86 0V11.044L13.68 20.5L4.26 15.048ZM59.74 15.048L33.14 0V11.044L50.32 20.49L59.74 15.048Z" fill="#CCCCCC"/>
<path d="M30.86 50.474L14.912 41.7V24.332L30.86 33.54V50.474ZM33.14 50.474L49.09 41.708V24.328L33.14 33.54V50.474ZM15.992 22.324L32 13.526L48.008 22.326L32 31.566L15.992 22.324Z" fill="#CCCCCC"/>
</svg>
